<?xml version="1.0" encoding="iso-8859-1"?>
<!-- Generator: Adobe Illustrator 12.0.0, SVG Export Plug-In . SVG Version: 6.00 Build 51448)  -->
<!DOCTYPE svg PUBLIC "-//W3C//DTD SVG 1.1//EN" "http://www.w3.org/Graphics/SVG/1.1/DTD/svg11.dtd" [
	<!ENTITY ns_svg "http://www.w3.org/2000/svg">
	<!ENTITY ns_xlink "http://www.w3.org/1999/xlink">
]>
<svg  version="1.1" xmlns="&ns_svg;" xmlns:xlink="&ns_xlink;" width="720" height="520" viewBox="0 0 720 520"
	 style="overflow:visible;enable-background:new 0 0 720 520;" xml:space="preserve">
<g id="Layer_1">
	<path style="fill:#747474;" d="M720,463.785C720,494.832,699.742,520,674.762,520H45.234C20.252,520,0,494.832,0,463.785V56.217
		C0,25.17,20.252,0,45.234,0h629.527C699.742,0,720,25.17,720,56.217V463.785z"/>
</g>
<g id="Layer_2">
	<g>
		<path style="fill:#FFFFFF;" d="M176.792,390.021l163.37-282.959c8.817-15.273,30.86-15.273,39.681,0L543.21,390.021
			c8.814,15.271-2.206,34.371-19.841,34.371H196.635C178.998,424.393,167.973,405.293,176.792,390.021z"/>
		<polygon style="fill:#747474;" points="206.029,396.05 360.003,129.366 513.97,396.05 		"/>
		<path style="fill:#FFFFFF;" d="M360.003,334.015c11.733,0,21.249,9.517,21.249,21.254c0,11.731-9.516,21.254-21.249,21.254
			c-11.74,0-21.253-9.522-21.253-21.254C338.75,343.531,348.264,334.015,360.003,334.015z"/>
		<path style="fill:#FFFFFF;" d="M360.003,200.303L360.003,200.303c-11.497,0-20.59,9.734-19.805,21.2l5.62,82.438
			c0.509,7.461,6.709,13.245,14.185,13.245l0,0c7.475,0,13.673-5.784,14.182-13.245l5.621-82.438
			C380.589,210.037,371.499,200.303,360.003,200.303z"/>
	</g>
</g>
</svg>
